<svg width="400" height="200" viewBox="0 0 400 200" fill="none" xmlns="http://www.w3.org/2000/svg">
  <rect width="400" height="200" fill="#1e1e2e"/>
  <path d="M200.5 50C177.6 50 173.1 59.4 173.1 68.8V87.5H201V91.2H173.1H159.4C150 91.2 142.1 99.1 142.1 108.8C142.1 118.4 150 126.2 159.4 126.2H176.9V107.5C176.9 97.2 185.6 88.8 195.6 88.8H224.4C232.5 88.8 239.4 81.9 239.4 73.8V68.8C239.4 60.6 232.5 50 200.5 50ZM186.2 62.5C189.7 62.5 192.5 65.3 192.5 68.8C192.5 72.2 189.7 75 186.2 75C182.8 75 180 72.2 180 68.8C180 65.3 182.8 62.5 186.2 62.5Z" fill="#366994"/>
  <path d="M227.5 91.2V110C227.5 120.3 218.8 128.8 208.8 128.8H180C171.9 128.8 165 135.6 165 143.8V148.8C165 156.9 171.9 167.5 203.8 167.5C226.9 167.5 231.2 158.1 231.2 148.8V130H203.8V126.2H231.2H245C254.4 126.2 262.2 118.4 262.2 108.8C262.2 99.1 254.4 91.2 245 91.2H227.5ZM214.4 155C217.8 155 220.6 157.8 220.6 161.2C220.6 164.7 217.8 167.5 214.4 167.5C210.9 167.5 208.1 164.7 208.1 161.2C208.1 157.8 210.9 155 214.4 155Z" fill="#FFD43B"/>
</svg>
